<svg xmlns="http://www.w3.org/2000/svg" xmlns:xlink="http://www.w3.org/1999/xlink" width="208" height="185" viewBox="0 0 208 185">
  <defs>
    <filter id="Path_14" x="67.764" y="77.555" width="72.407" height="66.47" filterUnits="userSpaceOnUse">
      <feOffset input="SourceAlpha"/>
      <feGaussianBlur stdDeviation="5" result="blur"/>
      <feFlood/>
      <feComposite operator="in" in2="blur"/>
      <feComposite in="SourceGraphic"/>
    </filter>
    <filter id="Path_13" x="88.968" y="41.084" width="72.407" height="66.47" filterUnits="userSpaceOnUse">
      <feOffset input="SourceAlpha"/>
      <feGaussianBlur stdDeviation="5" result="blur-2"/>
      <feFlood/>
      <feComposite operator="in" in2="blur-2"/>
      <feComposite in="SourceGraphic"/>
    </filter>
    <filter id="Polygon_5" x="46.561" y="41.084" width="72.407" height="66.47" filterUnits="userSpaceOnUse">
      <feOffset input="SourceAlpha"/>
      <feGaussianBlur stdDeviation="5" result="blur-3"/>
      <feFlood/>
      <feComposite operator="in" in2="blur-3"/>
      <feComposite in="SourceGraphic"/>
    </filter>
  </defs>
  <g id="Group_39" data-name="Group 39" transform="translate(-1949 382)">
    <g id="Group_38" data-name="Group 38" transform="translate(18 -13)">
      <g id="Group_37" data-name="Group 37" transform="translate(3392.959 124.948) rotate(180)">
        <g transform="matrix(-1, 0, 0, -1, 1461.96, 493.95)" filter="url(#Path_14)">
          <path id="Path_14-2" data-name="Path 14" d="M21.2,0l21.2,36.47H0Z" transform="translate(125.17 129.03) rotate(180)" fill="#fff"/>
        </g>
        <g transform="matrix(-1, 0, 0, -1, 1461.96, 493.95)" filter="url(#Path_13)">
          <path id="Path_13-2" data-name="Path 13" d="M21.2,0l21.2,36.47H0Z" transform="translate(146.38 92.55) rotate(180)" fill="#d634bb"/>
        </g>
        <g transform="matrix(-1, 0, 0, -1, 1461.96, 493.95)" filter="url(#Polygon_5)">
          <path id="Polygon_5-2" data-name="Polygon 5" d="M21.2,0l21.2,36.47H0Z" transform="translate(103.97 92.55) rotate(180)" fill="#5346fc"/>
        </g>
      </g>
      <g id="Ellipse_3" data-name="Ellipse 3" transform="translate(2138 -185)" fill="#fff" stroke="#707070" stroke-width="1">
        <circle cx="0.5" cy="0.5" r="0.5" stroke="none"/>
        <circle cx="0.5" cy="0.5" fill="none"/>
      </g>
      <g id="Ellipse_5" data-name="Ellipse 5" transform="translate(1931 -369)" fill="#fff" stroke="#707070" stroke-width="1">
        <circle cx="0.5" cy="0.5" r="0.5" stroke="none"/>
        <circle cx="0.5" cy="0.5" fill="none"/>
      </g>
      <g id="Ellipse_6" data-name="Ellipse 6" transform="translate(1931 -369)" fill="#fff" stroke="#707070" stroke-width="1">
        <circle cx="0.5" cy="0.5" r="0.5" stroke="none"/>
        <circle cx="0.5" cy="0.5" fill="none"/>
      </g>
    </g>
  </g>
</svg>
