<svg xmlns="http://www.w3.org/2000/svg" width="4221.937" height="3411.937" viewBox="0 0 4221.937 3411.937">
  <g id="Group_25" data-name="Group 25" transform="translate(1059.578 471.852)">
    <g id="Group_24" data-name="Group 24">
      <g id="Group_16" data-name="Group 16" transform="translate(712.671 -1620.551) rotate(45)">
        <g id="Group_8" data-name="Group 8" transform="translate(-1014 1423)">
          <path id="Polygon_2" data-name="Polygon 2" d="M125,0,250,215H0Z" transform="translate(1440.584 364.923)" fill="rgba(239,203,255,0.01)"/>
          <path id="Polygon_4" data-name="Polygon 4" d="M125,0,250,215H0Z" transform="translate(1315.584 579.923)" fill="rgba(239,203,255,0.01)"/>
          <path id="Polygon_5" data-name="Polygon 5" d="M125,0,250,215H0Z" transform="translate(1565.584 579.923)" fill="rgba(239,203,255,0.01)"/>
        </g>
        <g id="Group_9" data-name="Group 9" transform="translate(-639 1208)">
          <path id="Polygon_2-2" data-name="Polygon 2" d="M125,0,250,215H0Z" transform="translate(1440.584 364.923)" fill="rgba(239,203,255,0.01)"/>
          <path id="Polygon_4-2" data-name="Polygon 4" d="M125,0,250,215H0Z" transform="translate(1315.584 579.923)" fill="rgba(239,203,255,0.01)"/>
          <path id="Polygon_5-2" data-name="Polygon 5" d="M125,0,250,215H0Z" transform="translate(1565.584 579.923)" fill="rgba(239,203,255,0.01)"/>
        </g>
        <g id="Group_10" data-name="Group 10" transform="translate(-264 1423)">
          <path id="Polygon_2-3" data-name="Polygon 2" d="M125,0,250,215H0Z" transform="translate(1440.584 364.923)" fill="rgba(239,203,255,0.01)"/>
          <path id="Polygon_4-3" data-name="Polygon 4" d="M125,0,250,215H0Z" transform="translate(1315.584 579.923)" fill="rgba(239,203,255,0.01)"/>
          <path id="Polygon_5-3" data-name="Polygon 5" d="M125,0,250,215H0Z" transform="translate(1565.584 579.923)" fill="rgba(239,203,255,0.01)"/>
        </g>
        <g id="Group_11" data-name="Group 11" transform="translate(111 1208)">
          <path id="Polygon_2-4" data-name="Polygon 2" d="M125,0,250,215H0Z" transform="translate(1440.584 364.923)" fill="rgba(239,203,255,0.01)"/>
          <path id="Polygon_4-4" data-name="Polygon 4" d="M125,0,250,215H0Z" transform="translate(1315.584 579.923)" fill="rgba(239,203,255,0.01)"/>
          <path id="Polygon_5-4" data-name="Polygon 5" d="M125,0,250,215H0Z" transform="translate(1565.584 579.923)" fill="rgba(239,203,255,0.01)"/>
        </g>
        <g id="Group_12" data-name="Group 12" transform="translate(-1389 1208)">
          <path id="Polygon_2-5" data-name="Polygon 2" d="M125,0,250,215H0Z" transform="translate(1440.584 364.923)" fill="rgba(239,203,255,0.01)"/>
          <path id="Polygon_4-5" data-name="Polygon 4" d="M125,0,250,215H0Z" transform="translate(1315.584 579.923)" fill="rgba(239,203,255,0.01)"/>
          <path id="Polygon_5-5" data-name="Polygon 5" d="M125,0,250,215H0Z" transform="translate(1565.584 579.923)" fill="rgba(239,203,255,0.01)"/>
        </g>
        <g id="Group_13" data-name="Group 13" transform="translate(-639 1638)">
          <path id="Polygon_2-6" data-name="Polygon 2" d="M125,0,250,215H0Z" transform="translate(1440.584 364.923)" fill="rgba(239,203,255,0.01)"/>
          <path id="Polygon_4-6" data-name="Polygon 4" d="M125,0,250,215H0Z" transform="translate(1315.584 579.923)" fill="rgba(239,203,255,0.01)"/>
          <path id="Polygon_5-6" data-name="Polygon 5" d="M125,0,250,215H0Z" transform="translate(1565.584 579.923)" fill="rgba(239,203,255,0.01)"/>
        </g>
        <g id="Group_14" data-name="Group 14" transform="translate(-1389 1638)">
          <path id="Polygon_2-7" data-name="Polygon 2" d="M125,0,250,215H0Z" transform="translate(1440.584 364.923)" fill="rgba(239,203,255,0.01)"/>
          <path id="Polygon_4-7" data-name="Polygon 4" d="M125,0,250,215H0Z" transform="translate(1315.584 579.923)" fill="rgba(239,203,255,0.01)"/>
          <path id="Polygon_5-7" data-name="Polygon 5" d="M125,0,250,215H0Z" transform="translate(1565.584 579.923)" fill="rgba(239,203,255,0.01)"/>
        </g>
        <g id="Group_15" data-name="Group 15" transform="translate(111 1638)">
          <path id="Polygon_2-8" data-name="Polygon 2" d="M125,0,250,215H0Z" transform="translate(1440.584 364.923)" fill="rgba(239,203,255,0.01)"/>
          <path id="Polygon_4-8" data-name="Polygon 4" d="M125,0,250,215H0Z" transform="translate(1315.584 579.923)" fill="rgba(239,203,255,0.01)"/>
          <path id="Polygon_5-8" data-name="Polygon 5" d="M125,0,250,215H0Z" transform="translate(1565.584 579.923)" fill="rgba(239,203,255,0.01)"/>
        </g>
      </g>
      <g id="Group_17" data-name="Group 17" transform="translate(1161.67 -1620.551) rotate(45)">
        <g id="Group_8-2" data-name="Group 8" transform="translate(-1014 1423)">
          <path id="Polygon_2-9" data-name="Polygon 2" d="M125,0,250,215H0Z" transform="translate(1440.584 364.923)" fill="rgba(239,203,255,0.02)"/>
          <path id="Polygon_4-9" data-name="Polygon 4" d="M125,0,250,215H0Z" transform="translate(1315.584 579.923)" fill="rgba(239,203,255,0.02)"/>
          <path id="Polygon_5-9" data-name="Polygon 5" d="M125,0,250,215H0Z" transform="translate(1565.584 579.923)" fill="rgba(239,203,255,0.02)"/>
        </g>
        <g id="Group_9-2" data-name="Group 9" transform="translate(-639 1208)">
          <path id="Polygon_2-10" data-name="Polygon 2" d="M125,0,250,215H0Z" transform="translate(1440.584 364.923)" fill="rgba(239,203,255,0.02)"/>
          <path id="Polygon_4-10" data-name="Polygon 4" d="M125,0,250,215H0Z" transform="translate(1315.584 579.923)" fill="rgba(239,203,255,0.02)"/>
          <path id="Polygon_5-10" data-name="Polygon 5" d="M125,0,250,215H0Z" transform="translate(1565.584 579.923)" fill="rgba(239,203,255,0.02)"/>
        </g>
        <g id="Group_10-2" data-name="Group 10" transform="translate(-264 1423)">
          <path id="Polygon_2-11" data-name="Polygon 2" d="M125,0,250,215H0Z" transform="translate(1440.584 364.923)" fill="rgba(239,203,255,0.02)"/>
          <path id="Polygon_4-11" data-name="Polygon 4" d="M125,0,250,215H0Z" transform="translate(1315.584 579.923)" fill="rgba(239,203,255,0.02)"/>
          <path id="Polygon_5-11" data-name="Polygon 5" d="M125,0,250,215H0Z" transform="translate(1565.584 579.923)" fill="rgba(239,203,255,0.02)"/>
        </g>
        <g id="Group_11-2" data-name="Group 11" transform="translate(111 1208)">
          <path id="Polygon_2-12" data-name="Polygon 2" d="M125,0,250,215H0Z" transform="translate(1440.584 364.923)" fill="rgba(239,203,255,0.02)"/>
          <path id="Polygon_4-12" data-name="Polygon 4" d="M125,0,250,215H0Z" transform="translate(1315.584 579.923)" fill="rgba(239,203,255,0.02)"/>
          <path id="Polygon_5-12" data-name="Polygon 5" d="M125,0,250,215H0Z" transform="translate(1565.584 579.923)" fill="rgba(239,203,255,0.02)"/>
        </g>
        <g id="Group_12-2" data-name="Group 12" transform="translate(-1389 1208)">
          <path id="Polygon_2-13" data-name="Polygon 2" d="M125,0,250,215H0Z" transform="translate(1440.584 364.923)" fill="rgba(239,203,255,0.02)"/>
          <path id="Polygon_4-13" data-name="Polygon 4" d="M125,0,250,215H0Z" transform="translate(1315.584 579.923)" fill="rgba(239,203,255,0.02)"/>
          <path id="Polygon_5-13" data-name="Polygon 5" d="M125,0,250,215H0Z" transform="translate(1565.584 579.923)" fill="rgba(239,203,255,0.02)"/>
        </g>
        <g id="Group_13-2" data-name="Group 13" transform="translate(-639 1638)">
          <path id="Polygon_2-14" data-name="Polygon 2" d="M125,0,250,215H0Z" transform="translate(1440.584 364.923)" fill="rgba(239,203,255,0.02)"/>
          <path id="Polygon_4-14" data-name="Polygon 4" d="M125,0,250,215H0Z" transform="translate(1315.584 579.923)" fill="rgba(239,203,255,0.02)"/>
          <path id="Polygon_5-14" data-name="Polygon 5" d="M125,0,250,215H0Z" transform="translate(1565.584 579.923)" fill="rgba(239,203,255,0.02)"/>
        </g>
        <g id="Group_14-2" data-name="Group 14" transform="translate(-1389 1638)">
          <path id="Polygon_2-15" data-name="Polygon 2" d="M125,0,250,215H0Z" transform="translate(1440.584 364.923)" fill="rgba(239,203,255,0.02)"/>
          <path id="Polygon_4-15" data-name="Polygon 4" d="M125,0,250,215H0Z" transform="translate(1315.584 579.923)" fill="rgba(239,203,255,0.02)"/>
          <path id="Polygon_5-15" data-name="Polygon 5" d="M125,0,250,215H0Z" transform="translate(1565.584 579.923)" fill="rgba(239,203,255,0.02)"/>
        </g>
        <g id="Group_15-2" data-name="Group 15" transform="translate(111 1638)">
          <path id="Polygon_2-16" data-name="Polygon 2" d="M125,0,250,215H0Z" transform="translate(1440.584 364.923)" fill="rgba(239,203,255,0.02)"/>
          <path id="Polygon_4-16" data-name="Polygon 4" d="M125,0,250,215H0Z" transform="translate(1315.584 579.923)" fill="rgba(239,203,255,0.02)"/>
          <path id="Polygon_5-16" data-name="Polygon 5" d="M125,0,250,215H0Z" transform="translate(1565.584 579.923)" fill="rgba(239,203,255,0.02)"/>
        </g>
      </g>
    </g>
    <g id="Group_23" data-name="Group 23">
      <g id="Group_18" data-name="Group 18" transform="translate(3000.67 -1620.551) rotate(45)">
        <g id="Group_8-3" data-name="Group 8" transform="translate(-1014 1423)">
          <path id="Polygon_2-17" data-name="Polygon 2" d="M125,0,250,215H0Z" transform="translate(1440.584 364.923)" fill="rgba(239,203,255,0.02)"/>
          <path id="Polygon_4-17" data-name="Polygon 4" d="M125,0,250,215H0Z" transform="translate(1315.584 579.923)" fill="rgba(239,203,255,0.02)"/>
          <path id="Polygon_5-17" data-name="Polygon 5" d="M125,0,250,215H0Z" transform="translate(1565.584 579.923)" fill="rgba(239,203,255,0.02)"/>
        </g>
        <g id="Group_9-3" data-name="Group 9" transform="translate(-639 1208)">
          <path id="Polygon_2-18" data-name="Polygon 2" d="M125,0,250,215H0Z" transform="translate(1440.584 364.923)" fill="rgba(239,203,255,0.02)"/>
          <path id="Polygon_4-18" data-name="Polygon 4" d="M125,0,250,215H0Z" transform="translate(1315.584 579.923)" fill="rgba(239,203,255,0.02)"/>
          <path id="Polygon_5-18" data-name="Polygon 5" d="M125,0,250,215H0Z" transform="translate(1565.584 579.923)" fill="rgba(239,203,255,0.02)"/>
        </g>
        <g id="Group_10-3" data-name="Group 10" transform="translate(-264 1423)">
          <path id="Polygon_2-19" data-name="Polygon 2" d="M125,0,250,215H0Z" transform="translate(1440.584 364.923)" fill="rgba(239,203,255,0.02)"/>
          <path id="Polygon_4-19" data-name="Polygon 4" d="M125,0,250,215H0Z" transform="translate(1315.584 579.923)" fill="rgba(239,203,255,0.02)"/>
          <path id="Polygon_5-19" data-name="Polygon 5" d="M125,0,250,215H0Z" transform="translate(1565.584 579.923)" fill="rgba(239,203,255,0.02)"/>
        </g>
        <g id="Group_11-3" data-name="Group 11" transform="translate(111 1208)">
          <path id="Polygon_2-20" data-name="Polygon 2" d="M125,0,250,215H0Z" transform="translate(1440.584 364.923)" fill="rgba(239,203,255,0.02)"/>
          <path id="Polygon_4-20" data-name="Polygon 4" d="M125,0,250,215H0Z" transform="translate(1315.584 579.923)" fill="rgba(239,203,255,0.02)"/>
          <path id="Polygon_5-20" data-name="Polygon 5" d="M125,0,250,215H0Z" transform="translate(1565.584 579.923)" fill="rgba(239,203,255,0.02)"/>
        </g>
        <g id="Group_12-3" data-name="Group 12" transform="translate(-1389 1208)">
          <path id="Polygon_2-21" data-name="Polygon 2" d="M125,0,250,215H0Z" transform="translate(1440.584 364.923)" fill="rgba(239,203,255,0.02)"/>
          <path id="Polygon_4-21" data-name="Polygon 4" d="M125,0,250,215H0Z" transform="translate(1315.584 579.923)" fill="rgba(239,203,255,0.02)"/>
          <path id="Polygon_5-21" data-name="Polygon 5" d="M125,0,250,215H0Z" transform="translate(1565.584 579.923)" fill="rgba(239,203,255,0.02)"/>
        </g>
        <g id="Group_13-3" data-name="Group 13" transform="translate(-639 1638)">
          <path id="Polygon_2-22" data-name="Polygon 2" d="M125,0,250,215H0Z" transform="translate(1440.584 364.923)" fill="rgba(239,203,255,0.02)"/>
          <path id="Polygon_4-22" data-name="Polygon 4" d="M125,0,250,215H0Z" transform="translate(1315.584 579.923)" fill="rgba(239,203,255,0.02)"/>
          <path id="Polygon_5-22" data-name="Polygon 5" d="M125,0,250,215H0Z" transform="translate(1565.584 579.923)" fill="rgba(239,203,255,0.02)"/>
        </g>
        <g id="Group_14-3" data-name="Group 14" transform="translate(-1389 1638)">
          <path id="Polygon_2-23" data-name="Polygon 2" d="M125,0,250,215H0Z" transform="translate(1440.584 364.923)" fill="rgba(239,203,255,0.02)"/>
          <path id="Polygon_4-23" data-name="Polygon 4" d="M125,0,250,215H0Z" transform="translate(1315.584 579.923)" fill="rgba(239,203,255,0.02)"/>
          <path id="Polygon_5-23" data-name="Polygon 5" d="M125,0,250,215H0Z" transform="translate(1565.584 579.923)" fill="rgba(239,203,255,0.02)"/>
        </g>
        <g id="Group_15-3" data-name="Group 15" transform="translate(111 1638)">
          <path id="Polygon_2-24" data-name="Polygon 2" d="M125,0,250,215H0Z" transform="translate(1440.584 364.923)" fill="rgba(239,203,255,0.02)"/>
          <path id="Polygon_4-24" data-name="Polygon 4" d="M125,0,250,215H0Z" transform="translate(1315.584 579.923)" fill="rgba(239,203,255,0.02)"/>
          <path id="Polygon_5-24" data-name="Polygon 5" d="M125,0,250,215H0Z" transform="translate(1565.584 579.923)" fill="rgba(239,203,255,0.02)"/>
        </g>
      </g>
      <g id="Group_19" data-name="Group 19" transform="translate(2999.67 -1173.551) rotate(45)">
        <g id="Group_8-4" data-name="Group 8" transform="translate(-1014 1423)">
          <path id="Polygon_2-25" data-name="Polygon 2" d="M125,0,250,215H0Z" transform="translate(1440.584 364.923)" fill="rgba(239,203,255,0.02)"/>
          <path id="Polygon_4-25" data-name="Polygon 4" d="M125,0,250,215H0Z" transform="translate(1315.584 579.923)" fill="rgba(239,203,255,0.02)"/>
          <path id="Polygon_5-25" data-name="Polygon 5" d="M125,0,250,215H0Z" transform="translate(1565.584 579.923)" fill="rgba(239,203,255,0.02)"/>
        </g>
        <g id="Group_9-4" data-name="Group 9" transform="translate(-639 1208)">
          <path id="Polygon_2-26" data-name="Polygon 2" d="M125,0,250,215H0Z" transform="translate(1440.584 364.923)" fill="rgba(239,203,255,0.02)"/>
          <path id="Polygon_4-26" data-name="Polygon 4" d="M125,0,250,215H0Z" transform="translate(1315.584 579.923)" fill="rgba(239,203,255,0.02)"/>
          <path id="Polygon_5-26" data-name="Polygon 5" d="M125,0,250,215H0Z" transform="translate(1565.584 579.923)" fill="rgba(239,203,255,0.02)"/>
        </g>
        <g id="Group_10-4" data-name="Group 10" transform="translate(-264 1423)">
          <path id="Polygon_2-27" data-name="Polygon 2" d="M125,0,250,215H0Z" transform="translate(1440.584 364.923)" fill="rgba(239,203,255,0.02)"/>
          <path id="Polygon_4-27" data-name="Polygon 4" d="M125,0,250,215H0Z" transform="translate(1315.584 579.923)" fill="rgba(239,203,255,0.02)"/>
          <path id="Polygon_5-27" data-name="Polygon 5" d="M125,0,250,215H0Z" transform="translate(1565.584 579.923)" fill="rgba(239,203,255,0.02)"/>
        </g>
        <g id="Group_11-4" data-name="Group 11" transform="translate(111 1208)">
          <path id="Polygon_2-28" data-name="Polygon 2" d="M125,0,250,215H0Z" transform="translate(1440.584 364.923)" fill="rgba(239,203,255,0.02)"/>
          <path id="Polygon_4-28" data-name="Polygon 4" d="M125,0,250,215H0Z" transform="translate(1315.584 579.923)" fill="rgba(239,203,255,0.02)"/>
          <path id="Polygon_5-28" data-name="Polygon 5" d="M125,0,250,215H0Z" transform="translate(1565.584 579.923)" fill="rgba(239,203,255,0.02)"/>
        </g>
        <g id="Group_12-4" data-name="Group 12" transform="translate(-1389 1208)">
          <path id="Polygon_2-29" data-name="Polygon 2" d="M125,0,250,215H0Z" transform="translate(1440.584 364.923)" fill="rgba(239,203,255,0.02)"/>
          <path id="Polygon_4-29" data-name="Polygon 4" d="M125,0,250,215H0Z" transform="translate(1315.584 579.923)" fill="rgba(239,203,255,0.02)"/>
          <path id="Polygon_5-29" data-name="Polygon 5" d="M125,0,250,215H0Z" transform="translate(1565.584 579.923)" fill="rgba(239,203,255,0.02)"/>
        </g>
        <g id="Group_13-4" data-name="Group 13" transform="translate(-639 1638)">
          <path id="Polygon_2-30" data-name="Polygon 2" d="M125,0,250,215H0Z" transform="translate(1440.584 364.923)" fill="rgba(239,203,255,0.02)"/>
          <path id="Polygon_4-30" data-name="Polygon 4" d="M125,0,250,215H0Z" transform="translate(1315.584 579.923)" fill="rgba(239,203,255,0.02)"/>
          <path id="Polygon_5-30" data-name="Polygon 5" d="M125,0,250,215H0Z" transform="translate(1565.584 579.923)" fill="rgba(239,203,255,0.02)"/>
        </g>
        <g id="Group_14-4" data-name="Group 14" transform="translate(-1389 1638)">
          <path id="Polygon_2-31" data-name="Polygon 2" d="M125,0,250,215H0Z" transform="translate(1440.584 364.923)" fill="rgba(239,203,255,0.02)"/>
          <path id="Polygon_4-31" data-name="Polygon 4" d="M125,0,250,215H0Z" transform="translate(1315.584 579.923)" fill="rgba(239,203,255,0.02)"/>
          <path id="Polygon_5-31" data-name="Polygon 5" d="M125,0,250,215H0Z" transform="translate(1565.584 579.923)" fill="rgba(239,203,255,0.02)"/>
        </g>
        <g id="Group_15-4" data-name="Group 15" transform="translate(111 1638)">
          <path id="Polygon_2-32" data-name="Polygon 2" d="M125,0,250,215H0Z" transform="translate(1440.584 364.923)" fill="rgba(239,203,255,0.02)"/>
          <path id="Polygon_4-32" data-name="Polygon 4" d="M125,0,250,215H0Z" transform="translate(1315.584 579.923)" fill="rgba(239,203,255,0.02)"/>
          <path id="Polygon_5-32" data-name="Polygon 5" d="M125,0,250,215H0Z" transform="translate(1565.584 579.923)" fill="rgba(239,203,255,0.02)"/>
        </g>
      </g>
    </g>
    <g id="Group_22" data-name="Group 22" transform="translate(2335.67 -142.551) rotate(45)">
      <g id="Group_8-5" data-name="Group 8" transform="translate(-1014 1423)">
        <path id="Polygon_2-33" data-name="Polygon 2" d="M125,0,250,215H0Z" transform="translate(1440.584 364.923)" fill="rgba(239,203,255,0.02)"/>
        <path id="Polygon_4-33" data-name="Polygon 4" d="M125,0,250,215H0Z" transform="translate(1315.584 579.923)" fill="rgba(239,203,255,0.02)"/>
        <path id="Polygon_5-33" data-name="Polygon 5" d="M125,0,250,215H0Z" transform="translate(1565.584 579.923)" fill="rgba(239,203,255,0.02)"/>
      </g>
      <g id="Group_9-5" data-name="Group 9" transform="translate(-639 1208)">
        <path id="Polygon_2-34" data-name="Polygon 2" d="M125,0,250,215H0Z" transform="translate(1440.584 364.923)" fill="rgba(239,203,255,0.02)"/>
        <path id="Polygon_4-34" data-name="Polygon 4" d="M125,0,250,215H0Z" transform="translate(1315.584 579.923)" fill="rgba(239,203,255,0.02)"/>
        <path id="Polygon_5-34" data-name="Polygon 5" d="M125,0,250,215H0Z" transform="translate(1565.584 579.923)" fill="rgba(239,203,255,0.02)"/>
      </g>
      <g id="Group_10-5" data-name="Group 10" transform="translate(-264 1423)">
        <path id="Polygon_2-35" data-name="Polygon 2" d="M125,0,250,215H0Z" transform="translate(1440.584 364.923)" fill="rgba(239,203,255,0.02)"/>
        <path id="Polygon_4-35" data-name="Polygon 4" d="M125,0,250,215H0Z" transform="translate(1315.584 579.923)" fill="rgba(239,203,255,0.02)"/>
        <path id="Polygon_5-35" data-name="Polygon 5" d="M125,0,250,215H0Z" transform="translate(1565.584 579.923)" fill="rgba(239,203,255,0.02)"/>
      </g>
      <g id="Group_11-5" data-name="Group 11" transform="translate(111 1208)">
        <path id="Polygon_2-36" data-name="Polygon 2" d="M125,0,250,215H0Z" transform="translate(1440.584 364.923)" fill="rgba(239,203,255,0.02)"/>
        <path id="Polygon_4-36" data-name="Polygon 4" d="M125,0,250,215H0Z" transform="translate(1315.584 579.923)" fill="rgba(239,203,255,0.02)"/>
        <path id="Polygon_5-36" data-name="Polygon 5" d="M125,0,250,215H0Z" transform="translate(1565.584 579.923)" fill="rgba(239,203,255,0.02)"/>
      </g>
      <g id="Group_12-5" data-name="Group 12" transform="translate(-1389 1208)">
        <path id="Polygon_2-37" data-name="Polygon 2" d="M125,0,250,215H0Z" transform="translate(1440.584 364.923)" fill="rgba(239,203,255,0.02)"/>
        <path id="Polygon_4-37" data-name="Polygon 4" d="M125,0,250,215H0Z" transform="translate(1315.584 579.923)" fill="rgba(239,203,255,0.02)"/>
        <path id="Polygon_5-37" data-name="Polygon 5" d="M125,0,250,215H0Z" transform="translate(1565.584 579.923)" fill="rgba(239,203,255,0.02)"/>
      </g>
      <g id="Group_13-5" data-name="Group 13" transform="translate(-639 1638)">
        <path id="Polygon_2-38" data-name="Polygon 2" d="M125,0,250,215H0Z" transform="translate(1440.584 364.923)" fill="rgba(239,203,255,0.02)"/>
        <path id="Polygon_4-38" data-name="Polygon 4" d="M125,0,250,215H0Z" transform="translate(1315.584 579.923)" fill="rgba(239,203,255,0.02)"/>
        <path id="Polygon_5-38" data-name="Polygon 5" d="M125,0,250,215H0Z" transform="translate(1565.584 579.923)" fill="rgba(239,203,255,0.02)"/>
      </g>
      <g id="Group_14-5" data-name="Group 14" transform="translate(-1389 1638)">
        <path id="Polygon_2-39" data-name="Polygon 2" d="M125,0,250,215H0Z" transform="translate(1440.584 364.923)" fill="rgba(239,203,255,0.02)"/>
        <path id="Polygon_4-39" data-name="Polygon 4" d="M125,0,250,215H0Z" transform="translate(1315.584 579.923)" fill="rgba(239,203,255,0.02)"/>
        <path id="Polygon_5-39" data-name="Polygon 5" d="M125,0,250,215H0Z" transform="translate(1565.584 579.923)" fill="rgba(239,203,255,0.02)"/>
      </g>
      <g id="Group_15-5" data-name="Group 15" transform="translate(111 1638)">
        <path id="Polygon_2-40" data-name="Polygon 2" d="M125,0,250,215H0Z" transform="translate(1440.584 364.923)" fill="rgba(239,203,255,0.02)"/>
        <path id="Polygon_4-40" data-name="Polygon 4" d="M125,0,250,215H0Z" transform="translate(1315.584 579.923)" fill="rgba(239,203,255,0.02)"/>
        <path id="Polygon_5-40" data-name="Polygon 5" d="M125,0,250,215H0Z" transform="translate(1565.584 579.923)" fill="rgba(239,203,255,0.02)"/>
      </g>
    </g>
  </g>
</svg>
